# Blender v2.76 (sub 0) OBJ File: 'book2.blend'
# www.blender.org
mtllib table.mtl
o BezierCurve_Mesh
v -0.184491 -1.012150 -0.032716
v -0.184491 1.078200 -0.032716
v -0.157701 -1.012150 -0.048873
v -0.157701 1.078200 -0.048873
v -0.127773 -1.012150 -0.060651
v -0.127773 1.078200 -0.060651
v -0.095612 -1.012150 -0.068483
v -0.095612 1.078200 -0.068483
v -0.062123 -1.012150 -0.072800
v -0.062123 1.078200 -0.072800
v -0.028211 -1.012150 -0.074032
v -0.028211 1.078200 -0.074032
v 0.005220 -1.012150 -0.072611
v 0.005220 1.078200 -0.072611
v 0.037265 -1.012150 -0.068968
v 0.037265 1.078200 -0.068968
v 0.067019 -1.012150 -0.063535
v 0.067019 1.078200 -0.063535
v 0.093578 -1.012150 -0.056743
v 0.093578 1.078200 -0.056743
v 0.116036 -1.012150 -0.049023
v 0.116036 1.078200 -0.049023
v 0.133489 -1.012150 -0.040807
v 0.133489 1.078200 -0.040807
v 0.145032 -1.012150 -0.032526
v 0.145032 1.078200 -0.032526
v -0.065298 -1.012150 -0.015856
v -0.065298 1.078200 -0.015856
v 0.130314 -1.012150 0.016137
v 0.130314 1.078200 0.016137
v 0.063844 -1.012150 -0.006591
v 0.090403 -1.012150 0.000201
v 0.063844 1.078200 -0.006591
v 0.090403 1.078200 0.000201
v 0.141857 -1.012150 0.024418
v 0.141857 1.078200 0.024418
v -0.031386 -1.012150 -0.017088
v 0.002045 -1.012150 -0.015667
v -0.160876 -1.012150 0.008071
v -0.160876 1.078200 0.008071
v -0.130948 1.078200 -0.003707
v -0.098787 1.078200 -0.011539
v -0.130948 -1.012150 -0.003707
v -0.098787 -1.012150 -0.011539
v 0.034090 -1.012150 -0.012024
v 0.002045 1.078200 -0.015667
v 0.034090 1.078200 -0.012024
v 0.112861 -1.012150 0.007921
v -0.031386 1.078200 -0.017088
v 0.112861 1.078200 0.007921
v -0.187666 -1.012150 0.024228
v -0.187666 1.078200 0.024228
vt 0.391098 0.973561
vt 0.392507 0.975175
vt 0.015671 0.076754
vt 0.393351 0.976790
vt 0.016188 0.079007
vt 0.393871 0.978634
vt 0.016183 0.080984
vt 0.394258 0.980848
vt 0.015758 0.082628
vt 0.394647 0.983508
vt 0.015109 0.083849
vt 0.395152 0.986571
vt 0.014495 0.084538
vt 0.395853 0.989892
vt 0.014232 0.084572
vt 0.396834 0.993155
vt 0.014648 0.083837
vt 0.398408 0.995981
vt 0.016123 0.082210
vt 0.400850 0.998156
vt 0.019030 0.079587
vt 0.404291 0.999515
vt 0.023753 0.075875
vt 0.408746 0.999932
vt 0.030606 0.071026
vt 0.398727 0.970127
vt 0.024641 0.066441
vt 0.023387 0.062645
vt 0.397006 0.972829
vt 0.022467 0.058239
vt 0.396761 0.974866
vt 0.021923 0.053197
vt 0.397330 0.976818
vt 0.021652 0.047549
vt 0.398425 0.979030
vt 0.021451 0.041374
vt 0.399897 0.981716
vt 0.025197 0.045558
vt 0.401600 0.984983
vt 0.028086 0.049599
vt 0.403307 0.988885
vt 0.029784 0.053649
vt 0.405273 0.990095
vt 0.029957 0.057877
vt 0.406425 0.991843
vt 0.028271 0.062467
vt 0.406609 0.994041
vt 0.024419 0.067609
vt 0.405637 0.996629
vt 0.018171 0.073478
vt 0.032987 0.052522
vt 0.020552 0.054974
vt 0.020083 0.048268
vt 0.435860 0.023171
vt 0.437170 0.012737
vt 0.443280 0.013587
vt 0.423818 0.019932
vt 0.425128 0.009499
vt 0.431059 0.011391
vt 0.466289 0.022500
vt 0.467599 0.012066
vt 0.469967 0.010947
vt 0.032987 0.058614
vt 0.020552 0.061066
vt 0.447903 0.024421
vt 0.449213 0.013987
vt 0.454790 0.013987
vt 0.019318 0.070536
vt 0.025098 0.017234
vt 0.012662 0.019686
vt 0.009205 0.013193
vt 0.031753 0.068085
vt 0.020126 0.066326
vt 0.453480 0.024421
vt 0.459832 0.013635
vt 0.014679 0.074222
vt 0.418244 0.017447
vt 0.419554 0.007013
vt 0.462851 0.023412
vt 0.464161 0.012979
vt 0.403384 0.999502
vt 0.030003 0.031441
vt 0.017568 0.033892
vt 0.015436 0.026659
vt 0.032518 0.045817
vt 0.019103 0.041168
vt 0.031538 0.038717
vt 0.027871 0.024207
vt 0.429749 0.021824
vt 0.441970 0.024020
vt 0.017457 0.004946
vt 0.005022 0.007398
vt 0.000068 0.002520
vt 0.021640 0.010741
vt 0.032561 0.063875
vt 0.408882 0.010501
vt 0.410192 0.000068
vt 0.414516 0.003886
vt 0.458522 0.024069
vt 0.413206 0.014319
vt 0.468657 0.021380
vt 0.012503 0.000068
vn -0.675200 0.615500 -0.406500
vn -0.321100 0.688700 -0.650000
vn -0.321100 -0.688700 -0.650000
vn -0.218100 0.692100 -0.688000
vn -0.218100 -0.692100 -0.688000
vn -0.131200 0.694800 -0.707100
vn -0.131200 -0.694800 -0.707100
vn -0.058900 0.696900 -0.714700
vn -0.058900 -0.696900 -0.714700
vn 0.002200 0.698300 -0.715800
vn 0.002200 -0.698300 -0.715800
vn 0.055600 0.699200 -0.712700
vn 0.055600 -0.699200 -0.712700
vn 0.104600 0.699600 -0.706800
vn 0.104600 -0.699600 -0.706800
vn 0.152800 0.699300 -0.698200
vn 0.152800 -0.699300 -0.698200
vn 0.205200 0.698100 -0.685900
vn 0.205200 -0.698100 -0.685900
vn 0.270400 0.695100 -0.666200
vn 0.270400 -0.695100 -0.666200
vn 0.368000 0.687200 -0.626400
vn 0.368000 -0.687200 -0.626400
vn 0.712500 0.613100 -0.341000
vn 0.712500 -0.613100 -0.341000
vn -0.430000 0.552200 0.714200
vn -0.430000 -0.552200 0.714200
vn 0.304300 -0.726400 0.616100
vn 0.304300 0.726400 0.616100
vn 0.208800 -0.722700 0.658800
vn 0.208800 0.722700 0.658800
vn 0.126700 -0.719700 0.682500
vn 0.126700 0.719700 0.682500
vn 0.057200 -0.717600 0.694100
vn 0.057200 0.717600 0.694100
vn -0.002100 -0.716100 0.698000
vn -0.002100 0.716100 0.698000
vn -0.054300 -0.715100 0.696800
vn -0.054300 0.715100 0.696800
vn -0.102400 -0.714700 0.691800
vn -0.102400 0.714700 0.691800
vn -0.149500 -0.715000 0.682900
vn -0.149500 0.715000 0.682900
vn -0.200000 -0.716300 0.668500
vn -0.200000 0.716300 0.668500
vn -0.261100 -0.719500 0.643500
vn -0.261100 0.719500 0.643500
vn -0.347100 -0.728200 0.590900
vn -0.347100 0.728200 0.590900
vn 0.359600 -0.553200 0.751400
vn 0.359600 0.553200 0.751400
vn -0.675200 -0.615500 -0.406500
usemtl None
s 1
f 2/1/1 4/2/2 3/3/3
f 4/2/2 6/4/4 5/5/5
f 6/4/4 8/6/6 7/7/7
f 8/6/6 10/8/8 9/9/9
f 10/8/8 12/10/10 11/11/11
f 12/10/10 14/12/12 13/13/13
f 14/12/12 16/14/14 15/15/15
f 16/14/14 18/16/16 17/17/17
f 18/16/16 20/18/18 19/19/19
f 20/18/18 22/20/20 21/21/21
f 22/20/20 24/22/22 23/23/23
f 24/22/22 26/24/24 25/25/25
f 52/26/26 51/27/27 39/28/28
f 40/29/29 39/28/28 43/30/30
f 41/31/31 43/30/30 44/32/32
f 42/33/33 44/32/32 27/34/34
f 28/35/35 27/34/34 37/36/36
f 49/37/37 37/36/36 38/38/38
f 46/39/39 38/38/38 45/40/40
f 47/41/41 45/40/40 31/42/42
f 33/43/43 31/42/42 32/44/44
f 34/45/45 32/44/44 48/46/46
f 50/47/47 48/46/46 29/48/48
f 30/49/49 29/48/48 35/50/50
f 17/51/17 31/52/42 45/53/40
f 12/54/10 49/55/37 46/56/39
f 8/57/6 42/58/33 28/59/35
f 24/60/22 30/61/49 36/62/51
f 19/63/19 32/64/44 31/52/42
f 16/65/14 47/66/41 33/67/43
f 25/25/25 35/50/50 29/68/48
f 7/69/7 44/70/32 43/71/30
f 23/72/23 29/68/48 48/73/46
f 18/74/16 33/67/43 34/75/45
f 1/76/52 51/27/27 52/26/26
f 6/77/4 41/78/31 42/58/33
f 22/79/20 50/80/47 30/61/49
f 26/24/24 36/81/51 35/50/50
f 11/82/11 37/83/36 27/84/34
f 15/85/15 45/53/40 38/86/38
f 13/87/13 38/86/38 37/83/36
f 9/88/9 27/84/34 44/70/32
f 10/89/8 28/59/35 49/55/37
f 14/90/12 46/56/39 47/66/41
f 3/91/3 39/92/28 51/93/27
f 5/94/5 43/71/30 39/92/28
f 21/95/21 48/73/46 32/64/44
f 2/96/1 52/97/26 40/98/29
f 20/99/18 34/75/45 50/80/47
f 4/100/2 40/98/29 41/78/31
f 1/76/52 2/1/1 3/3/3
f 3/3/3 4/2/2 5/5/5
f 5/5/5 6/4/4 7/7/7
f 7/7/7 8/6/6 9/9/9
f 9/9/9 10/8/8 11/11/11
f 11/11/11 12/10/10 13/13/13
f 13/13/13 14/12/12 15/15/15
f 15/15/15 16/14/14 17/17/17
f 17/17/17 18/16/16 19/19/19
f 19/19/19 20/18/18 21/21/21
f 21/21/21 22/20/20 23/23/23
f 23/23/23 24/22/22 25/25/25
f 40/29/29 52/26/26 39/28/28
f 41/31/31 40/29/29 43/30/30
f 42/33/33 41/31/31 44/32/32
f 28/35/35 42/33/33 27/34/34
f 49/37/37 28/35/35 37/36/36
f 46/39/39 49/37/37 38/38/38
f 47/41/41 46/39/39 45/40/40
f 33/43/43 47/41/41 31/42/42
f 34/45/45 33/43/43 32/44/44
f 50/47/47 34/45/45 48/46/46
f 30/49/49 50/47/47 29/48/48
f 36/81/51 30/49/49 35/50/50
f 15/85/15 17/51/17 45/53/40
f 14/90/12 12/54/10 46/56/39
f 10/89/8 8/57/6 28/59/35
f 26/101/24 24/60/22 36/62/51
f 17/51/17 19/63/19 31/52/42
f 18/74/16 16/65/14 33/67/43
f 23/72/23 25/25/25 29/68/48
f 5/94/5 7/69/7 43/71/30
f 21/95/21 23/72/23 48/73/46
f 20/99/18 18/74/16 34/75/45
f 2/1/1 1/76/52 52/26/26
f 8/57/6 6/77/4 42/58/33
f 24/60/22 22/79/20 30/61/49
f 25/25/25 26/24/24 35/50/50
f 9/88/9 11/82/11 27/84/34
f 13/87/13 15/85/15 38/86/38
f 11/82/11 13/87/13 37/83/36
f 7/69/7 9/88/9 44/70/32
f 12/54/10 10/89/8 49/55/37
f 16/65/14 14/90/12 47/66/41
f 1/102/52 3/91/3 51/93/27
f 3/91/3 5/94/5 39/92/28
f 19/63/19 21/95/21 32/64/44
f 4/100/2 2/96/1 40/98/29
f 22/79/20 20/99/18 50/80/47
f 6/77/4 4/100/2 41/78/31
o Cube_Cube.001
v -2.236175 -0.960091 -0.053000
v -2.236175 -0.960091 0.053000
v -2.236175 1.039909 -0.053000
v -2.236175 1.039909 0.053000
v -0.236175 -0.960091 -0.053000
v -0.236175 -0.960091 0.053000
v -0.236175 1.039909 -0.053000
v -0.236175 1.039909 0.053000
v -2.288433 -1.012349 -0.026500
v -2.288433 -1.012349 0.000000
v -2.288433 -1.012349 0.026500
v -2.288433 1.092167 0.026500
v -2.288433 1.092167 0.000000
v -2.288433 1.092167 -0.026500
v -0.183917 1.092167 0.026500
v -0.183917 1.092167 0.000000
v -0.183917 1.092167 -0.026500
v -0.183917 -1.012349 0.026500
v -0.183917 -1.012349 0.000000
v -0.183917 -1.012349 -0.026500
v 0.198886 -0.960091 -0.053000
v 0.198886 -0.960091 0.053000
v 0.198886 1.039909 -0.053000
v 0.198886 1.039909 0.053000
v 2.198886 -0.960091 -0.053000
v 2.198886 -0.960091 0.053000
v 2.198886 1.039909 -0.053000
v 2.198886 1.039909 0.053000
v 0.146628 -1.012349 -0.026500
v 0.146628 -1.012349 0.000000
v 0.146628 -1.012349 0.026500
v 0.146628 1.092167 0.026500
v 0.146628 1.092167 0.000000
v 0.146628 1.092167 -0.026500
v 2.251144 1.092167 0.026500
v 2.251144 1.092167 0.000000
v 2.251144 1.092167 -0.026500
v 2.251144 -1.012349 0.026500
v 2.251144 -1.012349 0.000000
v 2.251144 -1.012349 -0.026500
vt 0.000100 0.999900
vt 0.002098 0.512615
vt 0.015742 0.526182
vt 0.489394 0.512615
vt 0.475778 0.526313
vt 0.487396 0.999900
vt 0.473752 0.986334
vt 0.013717 0.986202
vt 0.482534 0.029983
vt 0.482532 0.482534
vt 0.029981 0.482532
vt 0.029983 0.029981
vt 0.018158 0.016723
vt 0.494359 0.016724
vt 0.018124 0.008412
vt 0.494325 0.008412
vt 0.018089 0.000100
vt 0.495792 0.018158
vt 0.495791 0.494360
vt 0.504103 0.018124
vt 0.504103 0.494325
vt 0.512415 0.018089
vt 0.494357 0.495792
vt 0.018155 0.495791
vt 0.494391 0.504103
vt 0.018190 0.504103
vt 0.494426 0.512415
vt 0.016723 0.494357
vt 0.016724 0.018156
vt 0.008412 0.494391
vt 0.008412 0.018190
vt 0.000100 0.494426
vt 0.494290 0.000101
vt 0.512414 0.494290
vt 0.018225 0.512414
vt 0.000101 0.018225
vn -0.621000 -0.621000 -0.478100
vn -0.621000 0.621000 -0.478100
vn -0.177400 0.177400 -0.968000
vn 0.621000 0.621000 -0.478100
vn 0.177400 0.177400 -0.968000
vn 0.621000 -0.621000 -0.478100
vn 0.177400 -0.177400 -0.968000
vn -0.177400 -0.177400 -0.968000
vn 0.177400 -0.177400 0.968000
vn 0.177400 0.177400 0.968000
vn -0.177400 0.177400 0.968000
vn -0.177400 -0.177400 0.968000
vn -0.621000 -0.621000 0.478100
vn 0.621000 -0.621000 0.478100
vn -0.707100 -0.707100 0.000000
vn 0.707100 -0.707100 0.000000
vn 0.621000 0.621000 0.478100
vn 0.707100 0.707100 0.000000
vn -0.621000 0.621000 0.478100
vn -0.707100 0.707100 0.000000
usemtl None_wood.png
s 1
f 61/103/53 66/104/54 55/105/55
f 66/104/54 69/106/56 59/107/57
f 69/106/56 72/108/58 57/109/59
f 72/108/58 61/103/53 53/110/60
f 53/110/60 55/105/55 59/107/57
f 58/111/61 60/112/62 56/113/63
f 58/111/61 54/114/64 63/115/65
f 70/116/66 63/115/65 62/117/67
f 71/118/68 62/117/67 61/119/53
f 60/112/62 58/111/61 70/120/66
f 67/121/69 70/120/66 71/122/68
f 68/123/70 71/122/68 72/124/58
f 56/113/63 60/112/62 67/125/69
f 64/126/71 67/125/69 68/127/70
f 65/128/72 68/127/70 69/129/56
f 54/114/64 56/113/63 64/130/71
f 63/131/65 64/130/71 65/132/72
f 62/133/67 65/132/72 66/134/54
f 81/103/53 86/104/54 75/105/55
f 86/104/54 89/106/56 79/107/57
f 89/106/56 92/108/58 77/109/59
f 92/108/58 81/103/53 73/110/60
f 73/110/60 75/105/55 79/107/57
f 78/111/61 80/112/62 76/113/63
f 78/111/61 74/114/64 83/115/65
f 90/116/66 83/115/65 82/117/67
f 91/118/68 82/117/67 81/119/53
f 80/112/62 78/111/61 90/120/66
f 87/121/69 90/120/66 91/122/68
f 88/123/70 91/122/68 92/124/58
f 76/113/63 80/112/62 87/125/69
f 84/126/71 87/125/69 88/127/70
f 85/128/72 88/127/70 89/129/56
f 74/114/64 76/113/63 84/130/71
f 83/131/65 84/130/71 85/132/72
f 82/133/67 85/132/72 86/134/54
f 53/110/60 61/103/53 55/105/55
f 55/105/55 66/104/54 59/107/57
f 59/107/57 69/106/56 57/109/59
f 57/109/59 72/108/58 53/110/60
f 57/109/59 53/110/60 59/107/57
f 54/114/64 58/111/61 56/113/63
f 70/116/66 58/111/61 63/115/65
f 71/118/68 70/116/66 62/117/67
f 72/135/58 71/118/68 61/119/53
f 67/121/69 60/112/62 70/120/66
f 68/123/70 67/121/69 71/122/68
f 69/136/56 68/123/70 72/124/58
f 64/126/71 56/113/63 67/125/69
f 65/128/72 64/126/71 68/127/70
f 66/137/54 65/128/72 69/129/56
f 63/131/65 54/114/64 64/130/71
f 62/133/67 63/131/65 65/132/72
f 61/138/53 62/133/67 66/134/54
f 73/110/60 81/103/53 75/105/55
f 75/105/55 86/104/54 79/107/57
f 79/107/57 89/106/56 77/109/59
f 77/109/59 92/108/58 73/110/60
f 77/109/59 73/110/60 79/107/57
f 74/114/64 78/111/61 76/113/63
f 90/116/66 78/111/61 83/115/65
f 91/118/68 90/116/66 82/117/67
f 92/135/58 91/118/68 81/119/53
f 87/121/69 80/112/62 90/120/66
f 88/123/70 87/121/69 91/122/68
f 89/136/56 88/123/70 92/124/58
f 84/126/71 76/113/63 87/125/69
f 85/128/72 84/126/71 88/127/70
f 86/137/54 85/128/72 89/129/56
f 83/131/65 74/114/64 84/130/71
f 82/133/67 83/131/65 85/132/72
f 81/138/53 82/133/67 86/134/54
